<?xml version="1.0" standalone="no"?>
<!DOCTYPE svg PUBLIC "-//W3C//DTD SVG 20010904//EN"
 "http://www.w3.org/TR/2001/REC-SVG-20010904/DTD/svg10.dtd">
<svg version="1.0" xmlns="http://www.w3.org/2000/svg"
 width="2258.000000pt" height="2258.000000pt" viewBox="0 0 2258.000000 2258.000000"
 preserveAspectRatio="xMidYMid meet">
<metadata>
Created by potrace 1.14, written by Peter Selinger 2001-2017
</metadata>
<g transform="translate(0.000000,2258.000000) scale(0.100000,-0.100000)"
fill="#000000" stroke="none">
<path d="M3770 19645 l0 -2265 7101 0 c6759 0 7101 -1 7094 -17 -4 -10 -25
-70 -47 -133 -57 -163 -136 -373 -233 -610 -843 -2082 -2223 -4011 -3950
-5524 -2015 -1766 -4407 -2916 -6907 -3321 -265 -43 -524 -77 -550 -73 -13 2
17 25 94 73 174 107 604 397 793 534 2014 1463 3332 3279 3847 5299 40 159 41
162 62 149 53 -35 1677 -994 1820 -1075 9 -5 -6 23 -117 218 -126 219 -318
506 -486 725 l-62 80 1228 5 1228 5 -155 59 c-700 264 -1742 636 -2047 731
-288 90 -517 82 -1052 -37 l-184 -40 -211 211 -211 211 -216 -216 -216 -215
-204 45 c-481 107 -726 127 -944 76 -181 -42 -1116 -372 -2200 -777 l-130 -48
1228 -3 c675 -1 1227 -5 1227 -8 0 -3 -17 -27 -39 -53 -56 -67 -184 -245 -288
-401 -166 -249 -351 -569 -321 -558 17 7 904 529 1438 846 195 116 356 210
357 208 5 -5 -72 -223 -126 -358 -479 -1199 -1398 -2287 -2681 -3175 -1147
-795 -2619 -1401 -3743 -1544 -95 -12 -178 -23 -184 -25 -34 -9 2 -836 57
-1319 178 -1568 687 -2876 1523 -3914 1063 -1320 2683 -2225 4647 -2595 454
-86 1004 -146 1336 -146 284 0 722 36 1099 91 1178 171 2285 571 3202 1156
1530 978 2523 2490 2927 4458 117 570 182 1142 206 1810 6 179 10 2702 10
7003 l0 6722 -7510 0 -7510 0 0 -2265z m11474 1466 c766 -154 1243 -796 1178
-1585 -19 -227 -62 -386 -153 -573 -199 -406 -586 -690 -1055 -774 -142 -26
-439 -31 -569 -10 -350 55 -636 200 -863 436 -215 223 -319 439 -388 803 l-4
22 -300 0 -300 0 0 -595 0 -595 -340 0 -340 0 0 1420 0 1420 340 0 340 0 0
-515 0 -515 315 2 316 3 34 102 c167 497 585 854 1115 953 151 28 156 28 370
25 152 -2 219 -7 304 -24z m-7759 -596 l490 -559 5 559 5 560 355 0 355 0 5
-555 5 -555 470 558 469 557 413 0 c227 0 413 -2 413 -4 0 -2 -263 -300 -585
-662 -322 -362 -583 -664 -581 -671 3 -6 276 -341 607 -745 331 -403 606 -739
612 -745 7 -10 -75 -13 -405 -13 l-414 0 -500 631 -499 631 -5 -629 -5 -628
-355 0 -355 0 -5 632 -5 633 -520 -634 -520 -635 -403 0 -403 -1 59 73 c33 39
310 378 616 751 306 374 556 682 556 685 0 3 -241 278 -536 611 -295 333 -558
631 -586 663 l-50 57 403 -2 404 -3 490 -560z m3905 -765 c0 -242 -3 -440 -7
-440 -5 0 -255 102 -557 227 -470 195 -545 229 -525 237 77 35 1057 414 1072
415 16 1 17 -26 17 -439z m3662 -10870 c168 -52 285 -196 296 -366 l5 -73 171
-55 c118 -38 190 -67 231 -94 70 -45 166 -146 196 -205 54 -105 56 -120 169
-1227 60 -591 111 -1087 113 -1102 l4 -28 -5011 1 -5011 1 380 78 c2490 511
3906 937 5230 1573 516 248 951 491 1600 894 412 255 540 300 890 310 l190 6
32 66 c51 108 147 188 268 227 62 19 174 17 247 -6z m-4810 -4901 c74 -16 117
-40 165 -92 78 -84 94 -223 41 -338 -33 -71 -93 -136 -265 -286 -79 -69 -148
-133 -153 -144 -10 -18 -4 -19 220 -19 l230 0 0 -75 0 -75 -341 0 -342 0 6 58
c9 110 71 189 289 373 178 151 218 208 218 316 0 100 -54 153 -155 153 -88 0
-165 -71 -165 -153 l0 -27 -86 0 -87 0 7 46 c26 192 209 307 418 263z m1096
-14 c101 -24 170 -63 248 -140 110 -108 154 -213 154 -366 0 -106 -24 -192
-78 -275 -76 -116 -191 -198 -324 -229 -122 -29 -239 -12 -359 51 -121 64
-228 202 -258 334 -15 66 -13 187 4 255 69 262 349 432 613 370z m922 -525 l0
-500 -90 0 -90 0 0 493 c0 272 3 497 7 500 3 4 44 7 90 7 l83 0 0 -500z m518
-2 l2 -498 -90 0 -90 0 0 500 0 501 88 -3 87 -3 3 -497z"/>
<path d="M14738 20500 c-237 -42 -434 -194 -544 -415 -73 -148 -88 -220 -88
-425 0 -205 15 -277 88 -425 138 -278 382 -426 700 -426 136 0 215 13 317 52
170 66 309 197 394 374 77 160 90 223 89 435 -1 200 -15 270 -82 413 -95 201
-267 346 -477 403 -69 19 -323 28 -397 14z"/>
<path d="M13936 7908 c-6 -28 -48 -800 -44 -803 3 -3 1902 -124 1904 -122 5 6
-73 747 -79 753 -5 5 -1704 192 -1764 194 -7 0 -15 -10 -17 -22z"/>
<path d="M13575 7868 c-170 -121 -517 -312 -875 -482 -1372 -653 -3142 -1187
-4870 -1470 -151 -25 -300 -49 -330 -54 l-55 -10 45 -1 c104 -2 788 64 1225
120 1537 195 3230 572 4608 1025 204 68 257 89 257 102 0 23 68 723 75 780 4
23 3 42 -2 41 -4 0 -39 -23 -78 -51z"/>
<path d="M7393 5843 c9 -2 25 -2 35 0 9 3 1 5 -18 5 -19 0 -27 -2 -17 -5z"/>
<path d="M11160 3799 c-111 -22 -199 -92 -249 -198 -22 -47 -26 -70 -26 -141
0 -72 4 -94 28 -145 58 -123 174 -197 312 -197 135 0 241 64 306 184 32 59 34
69 34 158 0 85 -3 101 -30 153 -68 136 -229 216 -375 186z"/>
<path d="M5740 16370 c-468 -124 -695 -626 -479 -1058 93 -184 278 -329 490
-383 77 -20 267 -17 349 5 210 56 392 206 485 401 50 103 69 191 68 320 0 130
-17 204 -73 320 -92 190 -266 335 -467 391 -94 26 -282 28 -373 4z"/>
</g>
</svg>
